<?xml version="1.0" encoding="UTF-8"?>
<svg id="Layer_2" data-name="Layer 2" xmlns="http://www.w3.org/2000/svg" viewBox="0 0 202.33 202.33">
  <defs>
    <style>
      .cls-1 {
        fill: #e7e9e4;
      }

      .cls-2 {
        fill: #2d22dd;
      }
    </style>
  </defs>
  <g id="Layer_1-2" data-name="Layer 1">
    <g>
      <path class="cls-1" d="M169.9,26.94C128.91-11.02,64.9-8.57,26.94,32.43c-37.96,40.99-35.5,105,5.49,142.96,40.99,37.96,105,35.5,142.96-5.49,37.96-40.99,35.5-105-5.49-142.96Z"/>
      <path class="cls-2" d="M58.63,93.25l2.97,2.97c4.34,4.34,11.43,4.34,15.77,0l16.36-16.36v53.35c0,6.42,5.23,11.65,11.65,11.65h3.67s0-64.99,0-64.99l18.81,18.81c3,3,7.87,3,10.83,0l5.42-5.42-29.68-29.68c-3.49-3.49-8.16-5.42-13.1-5.42s-9.61,1.97-13.09,5.42l-29.68,29.68h.07Z"/>
    </g>
  </g>
</svg>