<?xml version="1.0" encoding="UTF-8"?>
<svg id="Layer_2" data-name="Layer 2" xmlns="http://www.w3.org/2000/svg" viewBox="0 0 202.33 202.33">
  <defs>
    <style>
      .cls-1 {
        fill: #e7e9e4;
      }

      .cls-2 {
        fill: #2d22dd;
      }
    </style>
  </defs>
  <g id="Layer_1-2" data-name="Layer 1">
    <g>
      <path class="cls-1" d="M175.39,169.9c37.96-40.99,35.5-105-5.49-142.96C128.91-11.02,64.9-8.57,26.94,32.43c-37.96,40.99-35.5,105,5.49,142.96,40.99,37.96,105,35.5,142.96-5.49Z"/>
      <path class="cls-2" d="M109.08,58.63l-2.97,2.97c-4.34,4.34-4.34,11.43,0,15.77l16.36,16.36h-53.35c-6.42,0-11.65,5.23-11.65,11.65v3.67h64.99l-18.81,18.81c-3,3-3,7.87,0,10.83l5.42,5.42,29.68-29.68c3.49-3.49,5.42-8.16,5.42-13.1s-1.97-9.61-5.42-13.09l-29.68-29.68v.07Z"/>
    </g>
  </g>
</svg>