<?xml version="1.0" encoding="UTF-8"?>
<svg id="Layer_2" data-name="Layer 2" xmlns="http://www.w3.org/2000/svg" viewBox="0 0 128.96 97.88">
  <defs>
    <style>
      .cls-1 {
        fill: #e7e9e4;
      }

      .cls-2 {
        fill: none;
      }

      .cls-3 {
        fill: #422be2;
      }
    </style>
  </defs>
  <g id="Layer_1-2" data-name="Layer 1">
    <g>
      <path class="cls-2" d="M14.92,37.64c-9.56,3.56-14.92,7.79-14.92,11.3s5.36,7.74,14.92,11.3c-.83-3.64-1.3-7.41-1.3-11.3s.48-7.66,1.3-11.3Z"/>
      <path class="cls-2" d="M114.04,60.24c9.56-3.56,14.92-7.79,14.92-11.3s-5.36-7.74-14.92-11.3c.83,3.64,1.3,7.41,1.3,11.3s-.48,7.66-1.3,11.3Z"/>
      <path class="cls-1" d="M50.77,0c-13.4,3.75-24.58,12.8-31.06,24.81,6.12-1.66,12.84-2.95,19.89-3.84,2.64-8.87,6.49-16.15,11.17-20.97Z"/>
      <path class="cls-1" d="M49.51,77.9c3.85,10.8,9.58,17.3,14.97,17.3s11.12-6.5,14.97-17.3c-4.94.36-9.96.55-14.97.55s-10.03-.19-14.97-.55Z"/>
      <path class="cls-3" d="M89.37,20.97c7.05.89,13.77,2.18,19.89,3.84C102.77,12.8,91.59,3.75,78.19,0c4.69,4.82,8.54,12.1,11.17,20.97Z"/>
      <path class="cls-3" d="M39.59,76.91c-7.05-.89-13.77-2.18-19.89-3.84,6.48,12,17.66,21.06,31.06,24.8-4.69-4.82-8.54-12.09-11.17-20.97Z"/>
      <path class="cls-1" d="M78.19,97.88c13.4-3.75,24.58-12.8,31.06-24.8-6.12,1.66-12.84,2.95-19.89,3.84-2.64,8.87-6.49,16.15-11.17,20.97Z"/>
      <path class="cls-1" d="M79.45,19.98c-3.85-10.8-9.58-17.31-14.97-17.31s-11.12,6.5-14.97,17.31c4.94-.36,9.96-.55,14.97-.55s10.03.19,14.97.55Z"/>
      <path class="cls-1" d="M37.05,32.2s0,0,0,0c-8.82,1.34-16.26,3.27-22.13,5.45-.83,3.64-1.3,7.41-1.3,11.3s.48,7.66,1.3,11.3c5.87,2.18,13.3,4.11,22.13,5.45-.84-5.27-1.29-10.89-1.29-16.75,0-5.1.36-10,1-14.65l9.22.31.59-3.55-9.52,1.14h0Z"/>
      <g>
        <path class="cls-1" d="M114.04,37.64c-5.87-2.18-13.3-4.11-22.13-5.45.84,5.27,1.29,10.89,1.29,16.75,0,5.19-.37,10.17-1.03,14.89l-9.19-.56-.59,3.55,9.52-1.14c8.82-1.34,16.26-3.27,22.13-5.45.83-3.64,1.3-7.41,1.3-11.3s-.48-7.66-1.3-11.3Z"/>
        <path class="cls-1" d="M82.39,31.05c-5.58-.52-11.54-.84-17.91-.84s-12.33.32-17.91.84c-1.01,5.41-1.61,11.41-1.61,17.89s.6,12.49,1.61,17.89c5.58.52,11.54.84,17.91.84s12.33-.32,17.91-.84c1.01-5.41,1.61-11.41,1.61-17.89s-.6-12.49-1.61-17.89Z"/>
      </g>
    </g>
  </g>
</svg>