<?xml version="1.0" encoding="UTF-8"?>
<svg id="Layer_2" data-name="Layer 2" xmlns="http://www.w3.org/2000/svg" viewBox="0 0 213.1 211.64">
  <defs>
    <style>
      .cls-1, .cls-2 {
        fill: #101021;
      }

      .cls-3, .cls-4 {
        fill: #e7e9e4;
      }

      .cls-2 {
        stroke: #e7e9e4;
        stroke-miterlimit: 10;
        stroke-width: 1.5px;
      }

      .cls-5 {
        fill: #422be2;
      }

      .cls-5, .cls-4 {
        fill-rule: evenodd;
      }
    </style>
  </defs>
  <g id="Layer_1-2" data-name="Layer 1">
    <g>
      <path class="cls-2" d="M212.3,97.73c-.77-25.29-2.49-52.3-20.69-71.65C172.45,5.58,139.88,1.18,113.06.79c-26.05-.38-58.62,1.72-80.84,16.48C6.36,34.51,1.57,67.84.8,96.77c-.07,2.68-.07,15.43,0,18.11.77,28.93,5.56,62.26,31.42,79.5,22.22,14.75,54.79,16.86,80.84,16.48,26.82-.38,59.39-4.79,78.54-25.29,18.2-19.35,19.92-46.36,20.69-71.65.07-2.37.07-13.82,0-16.19Z"/>
      <g>
        <path class="cls-5" d="M89.58,119.79c0-17.35,14.06-31.37,31.37-31.37s31.37,14.06,31.37,31.37-14.06,31.37-31.37,31.37-31.37-14.06-31.37-31.37Z"/>
        <path class="cls-4" d="M121.27,83.76c-3.57-13.43-14.56-23.28-29.12-23.28h0c-17.35,0-31.37,14.06-31.37,31.37s9.89,26.8,23.33,30.34c-.06-.81-.09-1.63-.09-2.44,0-19.91,17.35-35.99,37.26-35.99"/>
        <g>
          <path class="cls-3" d="M113.5,126.43c.59-.72,1.6-1.03,2.47-.75.88.28,2.16.63,3.26.63s2.16-.56,2.22-1.41c.09-1.22-.53-1.85-3.32-3.48-3.19-1.72-5.07-3.63-4.82-7.17.25-3.54,3.13-7.73,10.65-7.73s7.48,2.04,7.48,2.04l-3.07,3.88c-.56.72-1.53,1.03-2.41.78-.85-.22-1.94-.47-2.94-.47s-2.16.5-2.22,1.41c-.06.94.69,1.47,2.47,2.41,3.82,2.04,6.67,3.88,6.36,7.86-.31,3.98-4.16,8.05-11.12,8.05s-7.98-2.41-7.98-2.41l3.01-3.66-.03.03Z"/>
          <path class="cls-3" d="M125.62,108.92h-5.92l1.06-5.04c.41-1.88,2.04-3.19,3.95-3.19h2.63l-1.75,8.24h.03Z"/>
          <path class="cls-3" d="M117.61,138.86h-2.47l1.75-8.24h5.92l-1.03,4.88c-.41,1.94-2.13,3.35-4.13,3.35h-.03Z"/>
        </g>
      </g>
      <circle class="cls-1" cx="92.16" cy="94.01" r="4.5"/>
      <rect class="cls-1" x="90.86" y="75.23" width="2.6" height="12.13" rx="1.3" ry="1.3"/>
    </g>
  </g>
</svg>