<?xml version="1.0" encoding="UTF-8"?>
<svg id="Layer_2" data-name="Layer 2" xmlns="http://www.w3.org/2000/svg" viewBox="0 0 943.29 425.17">
  <defs>
    <style>
      .cls-1 {
        fill: #e7e9e4;
      }
    </style>
  </defs>
  <g id="Layer_1-2" data-name="Layer 1">
    <g>
      <path class="cls-1" d="M414.03,249.77c-40.99-37.96-105-35.5-142.96,5.49-37.96,40.99-35.5,105,5.49,142.96,40.99,37.96,105,35.5,142.96-5.49,37.96-40.99,35.5-105-5.49-142.96ZM382.89,337.27l-29.68,29.68-5.42-5.42c-3-2.97-3-7.83,0-10.83l18.81-18.81h-64.99v-3.67c0-6.42,5.23-11.65,11.65-11.65h53.35l-16.36-16.36c-4.34-4.34-4.34-11.43,0-15.77l2.97-2.97v-.07l29.68,29.68c3.45,3.49,5.42,8.2,5.42,13.09s-1.93,9.61-5.42,13.1Z"/>
      <path class="cls-1" d="M169.9,249.77c-40.99-37.96-105-35.5-142.96,5.49-37.96,40.99-35.5,105,5.49,142.96,40.99,37.96,105,35.5,142.96-5.49,37.96-40.99,35.5-105-5.49-142.96ZM114.09,361.6c-3.49,3.45-8.2,5.42-13.09,5.42s-9.61-1.93-13.1-5.42l-29.68-29.68,5.42-5.42c2.97-3,7.83-3,10.83,0l18.81,18.81v-64.99h3.67c6.42,0,11.65,5.23,11.65,11.65v53.35s16.36-16.36,16.36-16.36c4.34-4.34,11.43-4.34,15.77,0l2.97,2.97h.07l-29.68,29.68Z"/>
      <path class="cls-1" d="M669.57,249.77c-40.99-37.96-105-35.5-142.96,5.49-37.96,40.99-35.5,105,5.49,142.96s105,35.5,142.96-5.49c37.96-40.99,35.5-105-5.49-142.96ZM613.76,361.6c-3.49,3.45-8.2,5.42-13.09,5.42s-9.61-1.93-13.1-5.42l-29.68-29.68,5.42-5.42c2.97-3,7.83-3,10.83,0l18.81,18.81v-64.99h3.67c6.42,0,11.65,5.23,11.65,11.65v53.35l16.36-16.36c4.34-4.34,11.43-4.34,15.77,0l2.97,2.97h.07l-29.68,29.68Z"/>
      <path class="cls-1" d="M910.86,249.77c-40.99-37.96-105-35.5-142.96,5.49-37.96,40.99-35.5,105,5.49,142.96,40.99,37.96,105,35.5,142.96-5.49,37.96-40.99,35.5-105-5.49-142.96ZM879.65,321.5c-2.97,3-7.83,3-10.83,0l-18.81-18.81v64.99h-3.67c-6.42,0-11.65-5.23-11.65-11.65v-53.35l-16.36,16.36c-4.34,4.34-11.43,4.34-15.77,0l-2.97-2.97h-.07l29.68-29.68c3.49-3.45,8.2-5.42,13.09-5.42s9.61,1.93,13.1,5.42l29.68,29.68-5.42,5.42Z"/>
      <path class="cls-1" d="M349.18,202.26c55.83-2.14,99.35-49.14,97.21-104.97C444.24,41.45,397.24-2.07,341.41.08c-55.83,2.14-99.35,49.14-97.21,104.97,2.14,55.83,49.14,99.35,104.97,97.21ZM317.39,118.56l37.72-37.72h-23.14c-6.14,0-11.15-5.01-11.15-11.15v-4.2s-.05-.05-.05-.05h41.97c4.91.03,9.63,1.97,13.09,5.43,3.49,3.49,5.43,8.16,5.43,13.09v41.97h-7.66c-4.22.03-7.66-3.41-7.66-7.66v-26.6s-45.96,45.96-45.96,45.96l-2.6-2.6c-4.54-4.54-4.54-11.94,0-16.47Z"/>
      <path class="cls-1" d="M105.05,202.26c55.83-2.14,99.35-49.14,97.21-104.97C200.11,41.45,153.11-2.07,97.28.08,41.45,2.22-2.07,49.22.08,105.05c2.14,55.83,49.14,99.35,104.97,97.21ZM67.3,73.26c4.54-4.54,11.94-4.54,16.47,0l37.72,37.72v-23.14c0-6.14,5.01-11.15,11.15-11.15h4.2s.05-.05.05-.05v41.97c-.03,4.91-1.97,9.63-5.43,13.09s-8.16,5.43-13.09,5.43h-41.97s0-7.66,0-7.66c-.03-4.22,3.41-7.66,7.66-7.66h26.6s-45.96-45.96-45.96-45.96l2.6-2.6Z"/>
      <path class="cls-1" d="M604.72,202.26c55.83-2.14,99.35-49.14,97.21-104.97-2.14-55.83-49.14-99.35-104.97-97.21s-99.35,49.14-97.21,104.97c2.14,55.83,49.14,99.35,104.97,97.21ZM565.11,83.72c.03-4.91,1.97-9.63,5.43-13.09,3.49-3.49,8.16-5.43,13.09-5.43h41.97s0,7.66,0,7.66c.03,4.22-3.41,7.66-7.66,7.66h-26.6s45.96,45.96,45.96,45.96l-2.6,2.6c-4.54,4.54-11.94,4.54-16.47,0l-37.72-37.72v23.14c0,6.14-5.01,11.15-11.15,11.15h-4.2s-.05.05-.05.05v-41.97Z"/>
      <path class="cls-1" d="M846.01,202.26c55.83-2.14,99.35-49.14,97.21-104.97-2.15-55.83-49.14-99.35-104.97-97.21-55.83,2.14-99.35,49.14-97.21,104.97,2.15,55.83,49.14,99.35,104.97,97.21ZM806.16,76.4h7.66c4.22-.03,7.66,3.41,7.66,7.66v26.6s45.96-45.96,45.96-45.96l2.6,2.6c4.54,4.54,4.54,11.94,0,16.47l-37.72,37.72h23.14c6.14,0,11.15,5.01,11.15,11.15v4.2s.05.05.05.05h-41.97c-4.91-.03-9.63-1.97-13.09-5.43-3.49-3.49-5.43-8.16-5.43-13.09v-41.97Z"/>
    </g>
  </g>
</svg>