<?xml version="1.0" encoding="UTF-8"?>
<svg id="Layer_2" data-name="Layer 2" xmlns="http://www.w3.org/2000/svg" viewBox="0 0 213.1 211.64">
  <defs>
    <style>
      .cls-1 {
        fill: #e7e9e4;
      }

      .cls-2 {
        fill: #422be2;
      }

      .cls-3 {
        fill: #101021;
        stroke: #e7e9e4;
        stroke-miterlimit: 10;
        stroke-width: 1.5px;
      }
    </style>
  </defs>
  <g id="Layer_1-2" data-name="Layer 1">
    <g>
      <path class="cls-3" d="M212.3,97.73c-.77-25.29-2.49-52.3-20.69-71.65C172.45,5.58,139.88,1.18,113.06.79c-26.05-.38-58.62,1.72-80.84,16.48C6.36,34.51,1.57,67.84.8,96.77c-.07,2.68-.07,15.43,0,18.11.77,28.93,5.56,62.26,31.42,79.5,22.22,14.75,54.79,16.86,80.84,16.48,26.82-.38,59.39-4.79,78.54-25.29,18.2-19.35,19.92-46.36,20.69-71.65.07-2.37.07-13.82,0-16.19Z"/>
      <g>
        <path class="cls-1" d="M126.45,72.65c-.88-2.63-2.5-4.85-4.57-6.45-2.35-1.82-5.26-2.82-8.3-2.82s-2.19.13-3.29.41c-3.51.88-6.48,3.07-8.36,6.17-1.88,3.1-2.41,6.76-1.53,10.27.88,3.51,3.07,6.48,6.17,8.33,2.54,1.5,5.42,2.16,8.3,1.88-.16-3.57.72-7.11,2.6-10.21,2.1-3.48,5.23-6.11,8.96-7.58h.03Z"/>
        <path class="cls-2" d="M146.28,86.33c-.78-3.07-2.54-5.64-4.88-7.45s-5.26-2.82-8.3-2.82-.88,0-1.32.06c-.66.06-1.32.19-1.97.34-.53.13-1.03.28-1.57.47-.38.16-.75.31-1.13.5-2.35,1.13-4.29,2.91-5.67,5.2-1.19,2-1.85,4.23-1.94,6.48v1.03c.03.91.16,1.85.41,2.76.09.34.19.69.28,1,1,3.07,3.07,5.64,5.89,7.33,3.1,1.85,6.76,2.41,10.27,1.53,3.51-.88,6.48-3.07,8.36-6.17,1.88-3.1,2.41-6.76,1.53-10.27h.03Z"/>
        <path class="cls-1" d="M151.97,115.55c-.97-.75-2.1-.78-2.94-.13-3.07,2.44-5.2,4.51-7.08,6.33-4.6,4.45-7.36,7.14-15.94,7.14h-19.38v-4.67h16.25c-.34-.85-.75-1.97-1.25-3.38-3.13-9.39-10.87-11.34-21.48-11.34s-11.02.41-15.62,3.95h-.03c-.88.66-1.41,1.91-1.41,3.32v23.77c0,2.22,1.44,4.2,3.51,4.82,13.87,3.91,26.99,4.82,38.98,2.63,20.13-3.66,24.77-14.47,26.27-18,2.16-5.01,3.48-11.8.06-14.37l.06-.06Z"/>
        <path class="cls-2" d="M78.45,109.28v34.47c0,3.48-2.82,6.29-6.29,6.29h-8.61c-3.48,0-6.29-2.82-6.29-6.29v-34.47c0-3.48,2.82-6.29,6.29-6.29h8.61c3.48,0,6.29,2.82,6.29,6.29Z"/>
      </g>
    </g>
  </g>
</svg>