<?xml version="1.0" encoding="UTF-8"?>
<svg id="Layer_2" data-name="Layer 2" xmlns="http://www.w3.org/2000/svg" viewBox="0 0 213.1 211.64">
  <defs>
    <style>
      .cls-1 {
        fill: #101021;
        stroke: #e7e9e4;
        stroke-miterlimit: 10;
        stroke-width: 1.5px;
      }

      .cls-2 {
        fill: #422be2;
      }

      .cls-2, .cls-3 {
        fill-rule: evenodd;
      }

      .cls-3 {
        fill: #e7e9e4;
      }
    </style>
  </defs>
  <g id="Layer_1-2" data-name="Layer 1">
    <g>
      <path class="cls-1" d="M212.3,97.73c-.77-25.29-2.49-52.3-20.69-71.65C172.45,5.58,139.88,1.18,113.06.79c-26.05-.38-58.62,1.72-80.84,16.48C6.36,34.51,1.57,67.84.8,96.77c-.07,2.68-.07,15.43,0,18.11.77,28.93,5.56,62.26,31.42,79.5,22.22,14.75,54.79,16.86,80.84,16.48,26.82-.38,59.39-4.79,78.54-25.29,18.2-19.35,19.92-46.36,20.69-71.65.07-2.37.07-13.82,0-16.19Z"/>
      <g>
        <path class="cls-2" d="M140.18,95.02h-67.23c2.25-3.38,6.11-5.6,10.46-5.6h46.34c4.35,0,8.2,2.22,10.46,5.6h-.03Z"/>
        <path class="cls-2" d="M142.28,82.65v5.95c-3.29-3.07-7.7-4.98-12.56-4.98h-46.34c-4.85,0-9.27,1.88-12.56,4.98v-5.95c0-6.92,5.64-12.56,12.56-12.56h46.34c6.92,0,12.56,5.6,12.56,12.56Z"/>
        <path class="cls-3" d="M142.28,101.97v.97h-9.64c-5.01,0-9.93,1.72-13.87,4.85l-4.35,3.51c-4.6,3.66-11.08,3.66-15.69,0l-4.35-3.51c-3.95-3.16-8.83-4.85-13.87-4.85h-9.64v-.97c0-2.57.78-4.98,2.1-6.95,2.25-3.38,6.11-5.6,10.46-5.6h46.34c4.35,0,8.2,2.22,10.46,5.6,1.32,2,2.1,4.38,2.1,6.95h-.03Z"/>
        <path class="cls-3" d="M70.82,128.99v-20.29h9.64c3.69,0,7.33,1.25,10.24,3.6l4.35,3.51c6.73,5.35,16.22,5.35,22.95,0l4.35-3.51c2.91-2.32,6.51-3.6,10.24-3.6h9.64v20.29c0,6.92-5.64,12.56-12.56,12.56h-46.34c-6.92,0-12.56-5.6-12.56-12.56h.03Z"/>
      </g>
    </g>
  </g>
</svg>