<?xml version="1.0" encoding="UTF-8"?>
<svg id="Layer_2" data-name="Layer 2" xmlns="http://www.w3.org/2000/svg" viewBox="0 0 202.33 202.33">
  <defs>
    <style>
      .cls-1 {
        fill: #e7e9e4;
      }

      .cls-2 {
        fill: #2d22dd;
      }
    </style>
  </defs>
  <g id="Layer_1-2" data-name="Layer 1">
    <g>
      <path class="cls-1" d="M105.05,202.26c55.83-2.14,99.35-49.14,97.21-104.97C200.11,41.45,153.11-2.07,97.28.08,41.45,2.22-2.07,49.22.08,105.05c2.14,55.83,49.14,99.35,104.97,97.21Z"/>
      <path class="cls-2" d="M136.84,76.69h-4.2c-6.14,0-11.15,5.01-11.15,11.15v23.14s-37.72-37.72-37.72-37.72c-4.54-4.54-11.94-4.54-16.47,0l-2.6,2.6,45.96,45.96h-26.6c-4.25,0-7.69,3.44-7.66,7.66v7.66h41.97c4.93,0,9.6-1.94,13.09-5.43s5.4-8.18,5.43-13.09v-41.97s-.05.05-.05.05Z"/>
    </g>
  </g>
</svg>