<?xml version="1.0" encoding="UTF-8"?>
<svg id="Layer_2" data-name="Layer 2" xmlns="http://www.w3.org/2000/svg" viewBox="0 0 209.45 209.45">
  <defs>
    <style>
      .cls-1 {
        fill: none;
        stroke: #e7e9e4;
        stroke-miterlimit: 10;
        stroke-width: 7.13px;
      }

      .cls-2 {
        fill: #e7e9e4;
      }
    </style>
  </defs>
  <g id="Layer_1-2" data-name="Layer 1">
    <g>
      <path class="cls-1" d="M100.84,3.64C45.01,5.78,1.49,52.78,3.64,108.61c2.14,55.83,49.14,99.35,104.97,97.21,55.83-2.14,99.35-49.14,97.21-104.97C203.67,45.01,156.67,1.49,100.84,3.64Z"/>
      <path class="cls-2" d="M129.28,140.53v-4.2c0-6.13-4.99-11.12-11.12-11.12h-23.11s37.49-37.49,37.49-37.49l.27-.27c4.53-4.53,4.53-11.92,0-16.45l-2.6-2.6-45.95,45.95v-26.64c0-4.26-3.46-7.66-7.66-7.66h-7.66s0,41.96,0,41.96c0,4.93,1.93,9.59,5.39,13.05,3.46,3.46,8.19,5.39,13.05,5.39h41.96s-.07.07-.07.07Z"/>
    </g>
  </g>
</svg>