<?xml version="1.0" encoding="UTF-8"?>
<svg id="Layer_2" data-name="Layer 2" xmlns="http://www.w3.org/2000/svg" viewBox="0 0 119.46 118.32">
  <defs>
    <style>
      .cls-1, .cls-2 {
        fill: #e7e9e4;
      }

      .cls-3, .cls-4 {
        fill: #422be2;
      }

      .cls-4, .cls-2 {
        fill-rule: evenodd;
      }
    </style>
  </defs>
  <g id="Layer_1-2" data-name="Layer 1">
    <g>
      <g>
        <path class="cls-4" d="M37.59,77.38c0-22.63,18.34-40.94,40.94-40.94s40.94,18.34,40.94,40.94-18.34,40.94-40.94,40.94-40.94-18.34-40.94-40.94Z"/>
        <path class="cls-2" d="M78.93,30.38C74.28,12.85,59.94,0,40.94,0h0C18.3,0,0,18.34,0,40.94s12.91,34.97,30.44,39.59c-.08-1.06-.12-2.12-.12-3.19,0-25.98,22.63-46.96,48.62-46.96"/>
        <g>
          <path class="cls-1" d="M68.8,86.04c.78-.94,2.08-1.35,3.23-.98,1.14.37,2.82.82,4.25.82s2.82-.74,2.9-1.84c.12-1.59-.69-2.41-4.33-4.54-4.17-2.25-6.62-4.74-6.29-9.36.33-4.62,4.09-10.09,13.89-10.09s9.76,2.66,9.76,2.66l-4,5.07c-.74.94-2,1.35-3.15,1.02-1.1-.29-2.53-.61-3.84-.61s-2.82.65-2.9,1.84c-.08,1.23.9,1.92,3.23,3.15,4.98,2.66,8.7,5.07,8.29,10.25-.41,5.19-5.43,10.5-14.5,10.5s-10.42-3.15-10.42-3.15l3.92-4.78-.04.04Z"/>
          <path class="cls-1" d="M84.61,63.2h-7.72l1.39-6.58c.53-2.45,2.66-4.17,5.15-4.17h3.43l-2.29,10.75h.04Z"/>
          <path class="cls-1" d="M74.15,102.26h-3.23l2.29-10.75h7.72l-1.35,6.37c-.53,2.53-2.78,4.37-5.39,4.37h-.04Z"/>
        </g>
      </g>
      <circle class="cls-3" cx="40.96" cy="43.74" r="5.87"/>
      <rect class="cls-3" x="39.26" y="19.24" width="3.39" height="15.83" rx="1.69" ry="1.69"/>
    </g>
  </g>
</svg>