<?xml version="1.0" encoding="UTF-8"?>
<svg id="Layer_2" data-name="Layer 2" xmlns="http://www.w3.org/2000/svg" viewBox="0 0 131.95 129.39">
  <defs>
    <style>
      .cls-1, .cls-2 {
        fill: #e7e9e4;
      }

      .cls-3 {
        fill: #422be2;
      }

      .cls-3, .cls-2 {
        fill-rule: evenodd;
      }
    </style>
  </defs>
  <g id="Layer_1-2" data-name="Layer 1">
    <g>
      <path class="cls-2" d="M0,14.5c0-2.66,2.37-6.21,9.13-9.37C15.64,2.03,25.04,0,35.73,0s20.1,2.03,26.61,5.13c6.75,3.17,9.12,6.71,9.12,9.37s-2.37,6.21-9.12,9.37c-6.52,3.04-15.92,5.13-26.61,5.13s-20.09-2.09-26.61-5.13C2.37,20.71,0,17.16,0,14.5ZM71.46,30.78v17.16c0,2.66-2.37,6.21-9.12,9.37-6.52,3.1-15.92,5.13-26.61,5.13s-20.09-2.03-26.61-5.13c-6.75-3.17-9.13-6.71-9.13-9.37v-17.16c1.18.7,2.41,1.33,3.67,1.96,8.5,3.99,19.85,6.33,32.07,6.33s23.57-2.34,32.07-6.33c1.26-.63,2.49-1.27,3.67-1.96ZM59.36,92.08c.85-9.69,5.35-18.3,12.1-24.51v-3.29c-1.18.7-2.41,1.33-3.67,1.9-8.5,4.05-19.84,6.33-32.07,6.33s-23.57-2.28-32.07-6.33c-1.26-.57-2.49-1.2-3.67-1.9v17.16c0,2.66,2.37,6.21,9.13,9.37,6.52,3.04,15.91,5.13,26.61,5.13,9.16,0,17.37-1.52,23.63-3.86ZM59.91,102.66c-7.12,2.15-15.43,3.36-24.17,3.36-12.22,0-23.57-2.34-32.07-6.33-1.26-.57-2.49-1.27-3.67-1.96v17.23c0,2.6,2.37,6.14,9.13,9.37,6.52,3.04,15.91,5.07,26.61,5.07s20.1-2.03,26.61-5.07c2.76-1.33,4.79-2.66,6.23-4.05-4.31-4.88-7.37-10.96-8.66-17.61Z"/>
      <path class="cls-3" d="M68.57,95.44c0-17.54,14.19-31.73,31.69-31.73s31.69,14.19,31.69,31.73-14.19,31.67-31.69,31.67-31.69-14.19-31.69-31.67Z"/>
      <g>
        <path class="cls-1" d="M93.12,101.75c.57-.69,1.52-.99,2.36-.72.84.27,2.06.6,3.1.6s2.06-.54,2.12-1.34c.09-1.16-.51-1.76-3.16-3.31-3.05-1.64-4.84-3.46-4.6-6.84.24-3.37,2.99-7.37,10.15-7.37s7.14,1.94,7.14,1.94l-2.93,3.7c-.54.69-1.46.99-2.3.75-.81-.21-1.85-.45-2.81-.45s-2.06.48-2.12,1.34c-.06.9.66,1.4,2.36,2.3,3.64,1.94,6.36,3.7,6.06,7.49-.3,3.79-3.97,7.67-10.6,7.67s-7.61-2.3-7.61-2.3l2.87-3.49-.03.03Z"/>
        <path class="cls-1" d="M104.68,85.07h-5.64l1.02-4.81c.39-1.79,1.94-3.05,3.76-3.05h2.51l-1.67,7.85h.03Z"/>
        <path class="cls-1" d="M97.03,113.61h-2.36l1.67-7.85h5.64l-.99,4.66c-.39,1.85-2.03,3.19-3.94,3.19h-.03Z"/>
      </g>
    </g>
  </g>
</svg>