<?xml version="1.0" encoding="UTF-8"?>
<svg id="Layer_2" data-name="Layer 2" xmlns="http://www.w3.org/2000/svg" viewBox="0 0 113.75 109.04">
  <defs>
    <style>
      .cls-1 {
        fill: #e7e9e4;
      }

      .cls-2 {
        fill: #422be2;
      }
    </style>
  </defs>
  <g id="Layer_1-2" data-name="Layer 1">
    <g>
      <path class="cls-1" d="M90.82,68.18v25.45c0,8.5-6.5,15.4-14.54,15.4H14.59C6.54,109.04.04,102.14.04,93.64v-25.45h90.82-.04Z"/>
      <path class="cls-1" d="M90.82,53.52v5.39H0v-5.39c0-8.5,6.5-15.4,14.54-15.4h61.69c8.05,0,14.54,6.9,14.54,15.4h.04Z"/>
      <path class="cls-2" d="M113.17,34.85l-10.34,38.77c-.65,2.41-1.8,4.49-3.23,6.25v-26.31c0-13.65-10.46-24.72-23.37-24.72H21.78l4.66-17.2C28.68,3.14,36.77-1.52,44.17.45l59.28,15.89c7.31,1.96,12.01,10.09,9.72,18.59v-.08Z"/>
    </g>
  </g>
</svg>