<?xml version="1.0" encoding="UTF-8"?>
<svg id="Layer_2" data-name="Layer 2" xmlns="http://www.w3.org/2000/svg" viewBox="0 0 213.1 211.64">
  <defs>
    <style>
      .cls-1, .cls-2 {
        fill: #e7e9e4;
      }

      .cls-3 {
        fill: #101021;
        stroke: #e7e9e4;
        stroke-miterlimit: 10;
        stroke-width: 1.5px;
      }

      .cls-4 {
        fill: #422be2;
      }

      .cls-4, .cls-2 {
        fill-rule: evenodd;
      }
    </style>
  </defs>
  <g id="Layer_1-2" data-name="Layer 1">
    <g>
      <path class="cls-3" d="M212.3,97.73c-.77-25.29-2.49-52.3-20.69-71.65C172.45,5.58,139.88,1.18,113.06.79c-26.05-.38-58.62,1.72-80.84,16.48C6.36,34.51,1.57,67.84.8,96.77c-.07,2.68-.07,15.43,0,18.11.77,28.93,5.56,62.26,31.42,79.5,22.22,14.75,54.79,16.86,80.84,16.48,26.82-.38,59.39-4.79,78.54-25.29,18.2-19.35,19.92-46.36,20.69-71.65.07-2.37.07-13.82,0-16.19Z"/>
      <g>
        <path class="cls-2" d="M68.48,67.36c0-2.04,1.82-4.76,6.99-7.18,4.99-2.38,12.19-3.93,20.39-3.93s15.4,1.55,20.4,3.93c5.17,2.43,6.99,5.15,6.99,7.18s-1.82,4.76-6.99,7.18c-4.99,2.33-12.2,3.93-20.4,3.93s-15.4-1.6-20.39-3.93c-5.17-2.43-6.99-5.15-6.99-7.18ZM123.25,79.83v13.15c0,2.04-1.82,4.76-6.99,7.18-4.99,2.38-12.2,3.93-20.4,3.93s-15.4-1.55-20.39-3.93c-5.17-2.43-6.99-5.14-6.99-7.18v-13.15c.9.53,1.84,1.02,2.81,1.5,6.51,3.06,15.21,4.85,24.57,4.85s18.06-1.8,24.57-4.85c.97-.49,1.91-.97,2.81-1.5ZM113.98,126.81c.65-7.43,4.1-14.03,9.28-18.78v-2.52c-.9.53-1.84,1.02-2.81,1.46-6.51,3.11-15.21,4.85-24.57,4.85s-18.06-1.75-24.57-4.85c-.97-.44-1.91-.92-2.81-1.46v13.15c0,2.04,1.82,4.76,6.99,7.18,4.99,2.33,12.19,3.93,20.39,3.93,7.02,0,13.31-1.17,18.11-2.96ZM114.39,134.92c-5.46,1.65-11.82,2.57-18.53,2.57-9.36,0-18.06-1.8-24.57-4.85-.97-.44-1.91-.97-2.81-1.5v13.2c0,1.99,1.82,4.71,6.99,7.18,4.99,2.33,12.19,3.88,20.39,3.88s15.4-1.55,20.4-3.88c2.12-1.02,3.67-2.04,4.77-3.11-3.3-3.74-5.65-8.4-6.64-13.49Z"/>
        <path class="cls-4" d="M121.03,129.39c0-13.45,10.87-24.32,24.28-24.32s24.29,10.87,24.29,24.32-10.87,24.27-24.29,24.27-24.28-10.87-24.28-24.27Z"/>
        <g>
          <path class="cls-1" d="M139.85,134.23c.43-.53,1.17-.76,1.81-.55.64.21,1.58.46,2.38.46s1.58-.41,1.62-1.03c.07-.89-.39-1.35-2.43-2.54-2.33-1.26-3.71-2.65-3.52-5.24.18-2.59,2.29-5.65,7.78-5.65s5.47,1.49,5.47,1.49l-2.24,2.84c-.41.53-1.12.76-1.76.57-.62-.16-1.42-.34-2.15-.34s-1.58.37-1.62,1.03c-.05.69.5,1.08,1.81,1.76,2.79,1.49,4.87,2.84,4.64,5.74-.23,2.91-3.04,5.88-8.12,5.88s-5.83-1.76-5.83-1.76l2.2-2.68-.02.02Z"/>
          <path class="cls-1" d="M148.71,121.43h-4.32l.78-3.68c.3-1.37,1.49-2.33,2.88-2.33h1.92l-1.28,6.02h.02Z"/>
          <path class="cls-1" d="M142.85,143.31h-1.81l1.28-6.02h4.32l-.76,3.57c-.3,1.42-1.56,2.45-3.02,2.45h-.02Z"/>
        </g>
      </g>
    </g>
  </g>
</svg>