<?xml version="1.0" encoding="UTF-8"?>
<svg id="Layer_2" data-name="Layer 2" xmlns="http://www.w3.org/2000/svg" viewBox="0 0 126.23 113.09">
  <defs>
    <style>
      .cls-1 {
        fill: #e7e9e4;
      }

      .cls-2 {
        fill: #422be2;
      }
    </style>
  </defs>
  <g id="Layer_1-2" data-name="Layer 1">
    <g>
      <path class="cls-1" d="M90.29,12.09c-1.14-3.43-3.27-6.33-5.97-8.42-3.06-2.37-6.86-3.68-10.83-3.68s-2.86.16-4.29.53c-4.58,1.14-8.46,4-10.91,8.05-2.45,4.04-3.15,8.82-2,13.4,1.14,4.58,4,8.46,8.05,10.87,3.31,1.96,7.07,2.82,10.83,2.45-.2-4.66.94-9.27,3.39-13.32,2.74-4.54,6.82-7.97,11.68-9.89h.04Z"/>
      <path class="cls-2" d="M116.15,29.95c-1.02-4-3.31-7.35-6.37-9.72s-6.86-3.68-10.83-3.68-1.14,0-1.72.08c-.86.08-1.72.25-2.57.45-.69.16-1.35.37-2.04.61-.49.2-.98.41-1.47.65-3.06,1.47-5.6,3.8-7.39,6.78-1.55,2.61-2.41,5.52-2.53,8.46v1.35c.04,1.18.2,2.41.53,3.6.12.45.25.9.37,1.31,1.31,4,4,7.35,7.68,9.56,4.04,2.41,8.82,3.15,13.4,2,4.58-1.14,8.46-4,10.91-8.05,2.45-4.04,3.15-8.82,2-13.4h.04Z"/>
      <path class="cls-1" d="M123.59,68.07c-1.27-.98-2.74-1.02-3.84-.16-4,3.19-6.78,5.88-9.23,8.25-6.01,5.8-9.6,9.32-20.8,9.32h-25.29v-6.09h21.2c-.45-1.1-.98-2.57-1.63-4.41-4.09-12.26-14.18-14.79-28.03-14.79s-14.38.53-20.39,5.15h-.04c-1.14.86-1.84,2.49-1.84,4.33v31.01c0,2.9,1.88,5.47,4.58,6.29,18.1,5.11,35.22,6.29,50.87,3.43,26.27-4.78,32.32-18.88,34.28-23.49,2.82-6.54,4.54-15.4.08-18.75l.08-.08Z"/>
      <path class="cls-2" d="M27.66,59.9v44.98c0,4.54-3.68,8.21-8.21,8.21h-11.24c-4.54,0-8.21-3.68-8.21-8.21v-44.98c0-4.54,3.68-8.21,8.21-8.21h11.24c4.54,0,8.21,3.68,8.21,8.21Z"/>
    </g>
  </g>
</svg>