<?xml version="1.0" encoding="UTF-8"?>
<svg id="Layer_2" data-name="Layer 2" xmlns="http://www.w3.org/2000/svg" viewBox="0 0 209.45 209.45">
  <defs>
    <style>
      .cls-1 {
        fill: none;
        stroke: #e7e9e4;
        stroke-miterlimit: 10;
        stroke-width: 7.13px;
      }

      .cls-2 {
        fill: #e7e9e4;
      }
    </style>
  </defs>
  <g id="Layer_1-2" data-name="Layer 1">
    <g>
      <path class="cls-1" d="M173.46,30.5C132.47-7.46,68.46-5,30.5,35.99-7.46,76.99-5,140.99,35.99,178.95c40.99,37.96,105,35.5,142.96-5.49,37.96-40.99,35.5-105-5.49-142.96Z"/>
      <path class="cls-2" d="M96.78,147.4l2.97-2.97c4.33-4.33,4.33-11.4,0-15.73l-16.34-16.34h53.03s.38,0,.38,0c6.4,0,11.63-5.23,11.63-11.63v-3.67s-64.99,0-64.99,0l18.84-18.84c3.01-3.01,2.97-7.86,0-10.83l-5.42-5.42-29.67,29.67c-3.48,3.48-5.42,8.15-5.42,13.04,0,4.9,1.98,9.61,5.42,13.04l29.67,29.67h-.09Z"/>
    </g>
  </g>
</svg>