<?xml version="1.0" encoding="UTF-8"?>
<svg id="Layer_1" data-name="Layer 1" xmlns="http://www.w3.org/2000/svg" viewBox="0 0 350 350">
  <path fill="none" stroke="#e7e9e4" stroke-width="1.5" stroke-linecap="round" stroke-linejoin="round" d="M235.83,160.97c-.46,7.67-3.33,15.42-5.1,22.61-2.36,8.75-8.24,30.52-9.54,35.34-.13.46-.32.83-.83.94-13.07-.07-24.96-12.46-23.09-25.91.45-6.36,12.65-37.29,5.93-39.43-7.36-2.72-38.94,49.2-39.39,49.9-14.49,23.52-32.98,23.72-43.72,14.05-11.24-10.15-3.71-33.49-1.74-41.53,3.17-11.26,10.51-37.3,11.9-42.22.45-1.57,2.99-.54,4.29-.42,12.77,2.6,21.35,13.73,19.48,26.43-2.11,10.27-6.43,22.54-8.88,32.85,1.19-1.55,15.64-23.24,20.4-30.22,10.23-14.32,30.27-43.8,56.6-29.65,9.31,5.21,14.69,16.07,13.73,27.02l-.02.24Z"/>
  <path fill="none" stroke="#e7e9e4" stroke-width="1.5" stroke-linecap="round" stroke-linejoin="round" d="M150.75,127.7c-2.99,0-6.05-.86-9.1-2.55-5.48-2.99-9.76-10.01-7.45-16.59,1.97-6.06,7.76-8.2,12.51-8.2,3.63,0,7.3,1.17,10.06,3.22l.24.17c5.71,4.3,8.07,10.08,6.28,15.43-1.7,5.09-6.75,8.51-12.55,8.51Z"/>
  <path fill="none" stroke="#e7e9e4" stroke-width="1.5" stroke-linecap="round" stroke-linejoin="round" d="M201.33,249.64c-3.47,0-7.07-1.26-10.42-3.64-5.11-3.58-8.58-11.04-5.56-17.31,1.99-4.38,6.17-6.87,11.49-6.87,4.22,0,8.52,1.65,11.5,4.42l.22.2c5.03,4.75,6.79,10.4,4.78,15.45-1.87,4.7-6.58,7.74-12.01,7.74Z"/>
  <path fill="none" stroke="#e7e9e4" stroke-width="1.5" stroke-linecap="round" stroke-linejoin="round" d="M116.86,182.36l-.02.05s.01-.06.01-.06h.01Z"/>
</svg>