<?xml version="1.0" encoding="UTF-8"?>
<svg xmlns="http://www.w3.org/2000/svg" viewBox="0 0 350 350">
  <path fill="#e7e9e4" d="M51.38,168.2h0c7.39,0,12.62,6.04,11.15,12.87l-6.33,29.31h0c-7.39,0-12.62-6.04-11.15-12.87l6.33-29.31ZM53.49,156.15c.36-4.53,4.84-8.22,9.37-8.22,3.96,0,6.57,2.85,6.28,6.43-.35,4.43-4.95,8.12-9.59,8.12-3.85,0-6.34-2.85-6.07-6.33Z"/>
  <path fill="#e7e9e4" d="M73.91,168.2h2.51c3.27,0,5.9,2.17,6.25,5.17h0c2.29-1.79,8.19-6.22,15.78-6.22,12.45,0,16.53,10.02,13.96,20.98l-4.82,22.25h-4.95c-4.57,0-7.8-3.75-6.86-7.98l3.32-14.91c1.23-5.48-.54-8.96-5.06-8.96-1.68,0-3.24.48-4.6,1.17-3.31,1.67-5.6,4.72-6.34,8.09l-4.94,22.58h-4.77c-4.56,0-7.78-3.72-6.87-7.93l7.4-34.25Z"/>
  <path fill="#e7e9e4" d="M119.4,201.07c1.01-1.23,2.73-1.75,4.21-1.26,1.57.52,3.67,1.07,5.57,1.07,2.04,0,3.7-.95,3.82-2.43.17-2.11-.88-3.16-5.65-5.91-5.43-2.95-8.68-6.22-8.2-12.23.53-6.75,5.35-13.18,18.14-13.18,6.23,0,12.74,3.48,12.74,3.48l-5.23,6.61c-.97,1.22-2.63,1.76-4.11,1.35s-3.29-.79-5.05-.79c-2.38,0-3.69.84-3.82,2.43s1.16,2.53,4.2,4.11c6.52,3.48,11.36,6.64,10.83,13.39-.58,7.28-7.09,13.71-18.97,13.71-7.36,0-13.6-4.11-13.6-4.11l5.11-6.25Z"/>
  <path fill="#e7e9e4" d="M153.2,190.66l4.95-22.46h6.9c3.54,0,6.05,2.9,5.34,6.17l-3.63,16.6c-1.24,5.59.41,9.07,4.26,9.07,1.98,0,3.71-.77,5.1-1.75,2.38-1.68,3.95-4.16,4.53-6.81l5.01-23.28h6.17c3.82,0,6.53,3.12,5.78,6.65l-7.58,35.53h-2.89c-3.15,0-5.66-2.16-5.88-5.06h0c-2.57,2.43-7.16,6.12-15.2,6.12-12.34,0-15.4-10.02-12.85-20.77Z"/>
  <path fill="#e7e9e4" d="M214.52,138.57h0c7.37,0,11.04,6.05,9.51,12.85l-13.31,58.96h.73c-7.37,0-11.77-6.05-10.23-12.85l13.31-58.96Z"/>
  <path fill="#e7e9e4" d="M259.32,210.38h-3.13c-3.07,0-5.49-2.12-5.65-4.96h0c-1.82,1.48-7.04,6.01-15.08,6.01-9.51,0-15.96-8.65-15.11-19.4,1.08-13.6,12.05-24.88,25.29-24.88,6.45,0,10.8,3.8,12.22,5.8l2.41-4.74h1.14c3.67,0,6.26,2.99,5.54,6.38l-7.64,35.8ZM251.15,186.51c.6-2.55-.24-5.16-2.34-6.7-1.03-.76-2.37-1.28-4.07-1.28-5.21,0-11.04,4.96-11.69,13.29-.36,4.53,2.18,8.22,6.82,8.22,3.76,0,7.05-2.97,8.73-5.25.6-.81,1.01-1.73,1.23-2.67l1.31-5.61Z"/>
  <path fill="#e7e9e4" d="M284.3,168.2h0l.58,5.48c2.91-4.12,7.55-6.26,12.13-6.26,11.9,0,7.32,11,7.32,11,0,0-4.65-2.07-10.65,0-4.02,1.39-7.26,4.43-7.26,4.43l-4.17,19.03c-1.09,4.96-5.48,8.49-10.55,8.49h-4.78l7.46-34.54c.94-4.36,5.19-7.64,9.92-7.64Z"/>
</svg>