<?xml version="1.0" encoding="UTF-8"?>
<svg id="Layer_2" data-name="Layer 2" xmlns="http://www.w3.org/2000/svg" viewBox="0 0 202.33 202.33">
  <defs>
    <style>
      .cls-1 {
        fill: #e7e9e4;
      }

      .cls-2 {
        fill: #2d22dd;
      }
    </style>
  </defs>
  <g id="Layer_1-2" data-name="Layer 1">
    <g>
      <path class="cls-1" d="M32.43,175.39c40.99,37.96,105,35.5,142.96-5.49,37.96-40.99,35.5-105-5.49-142.96C128.91-11.02,64.9-8.56,26.94,32.43c-37.96,40.99-35.5,105,5.49,142.96Z"/>
      <path class="cls-2" d="M143.69,109.08l-2.97-2.97c-4.34-4.34-11.43-4.34-15.77,0l-16.36,16.36v-53.35c0-6.42-5.23-11.65-11.65-11.65h-3.67v64.99s-18.81-18.81-18.81-18.81c-3-3-7.87-3-10.83,0l-5.42,5.42,29.68,29.68c3.49,3.49,8.16,5.42,13.1,5.42s9.61-1.97,13.09-5.42l29.68-29.68h-.07Z"/>
    </g>
  </g>
</svg>