<?xml version="1.0" encoding="UTF-8"?>
<svg id="Layer_2" data-name="Layer 2" xmlns="http://www.w3.org/2000/svg" viewBox="0 0 213.1 211.64">
  <defs>
    <style>
      .cls-1 {
        fill: #e7e9e4;
      }

      .cls-2 {
        fill: #422be2;
      }

      .cls-3 {
        fill: #101021;
        stroke: #e7e9e4;
        stroke-miterlimit: 10;
        stroke-width: 1.5px;
      }
    </style>
  </defs>
  <g id="Layer_1-2" data-name="Layer 1">
    <g>
      <path class="cls-3" d="M212.3,97.73c-.77-25.29-2.49-52.3-20.69-71.65C172.45,5.58,139.88,1.18,113.06.79c-26.05-.38-58.62,1.72-80.84,16.48C6.36,34.51,1.57,67.84.8,96.77c-.07,2.68-.07,15.43,0,18.11.77,28.93,5.56,62.26,31.42,79.5,22.22,14.75,54.79,16.86,80.84,16.48,26.82-.38,59.39-4.79,78.54-25.29,18.2-19.35,19.92-46.36,20.69-71.65.07-2.37.07-13.82,0-16.19Z"/>
      <g>
        <polygon class="cls-2" points="100.59 56.86 88.06 64.04 108.57 61.75 100.59 56.86"/>
        <path class="cls-2" d="M131.18,71.9s1.22.13,1.79.2c.77.15,2.39.33,2.31.31-.25-.94-.6-1.81-1.04-2.61-.46-.83-1-1.58-1.63-2.24-1.83-1.79-4.22-2.83-6.72-2.88-1-.3-43.99,4.65-43.99,4.65-3,.3-5.55,2.07-7.1,4.72,2.11-.9,4.85-2.26,10.95-2.26h43.38c.66,0,1.35.05,2.05.11Z"/>
        <path class="cls-1" d="M132.61,97.78h14.97v-.6c0-10.53-8.54-19.07-19.07-19.07h-42.07c-10.53,0-19.07,8.54-19.07,19.07v25.31c0,10.53,8.54,19.07,19.07,19.07h42.07c10.53,0,19.07-8.54,19.07-19.07v-.27h-14.97c-6.75,0-12.22-5.47-12.22-12.22h0c0-6.75,5.47-12.22,12.22-12.22Z"/>
        <path class="cls-2" d="M133.3,104.55h14.44v10.77h-14.44c-2.97,0-5.38-2.41-5.38-5.38h0c0-2.97,2.41-5.38,5.38-5.38Z"/>
      </g>
    </g>
  </g>
</svg>