<?xml version="1.0" encoding="UTF-8"?>
<svg id="Layer_2" data-name="Layer 2" xmlns="http://www.w3.org/2000/svg" viewBox="0 0 202.33 202.33">
  <defs>
    <style>
      .cls-1 {
        fill: #e7e9e4;
      }

      .cls-2 {
        fill: #2d22dd;
      }
    </style>
  </defs>
  <g id="Layer_1-2" data-name="Layer 1">
    <g>
      <path class="cls-1" d="M.08,105.05c2.14,55.83,49.14,99.35,104.97,97.21,55.83-2.14,99.35-49.14,97.21-104.97C200.11,41.45,153.11-2.07,97.28.08,41.45,2.22-2.07,49.22.08,105.05Z"/>
      <path class="cls-2" d="M125.64,136.84v-4.2c0-6.14-5.01-11.15-11.15-11.15h-23.14s37.72-37.72,37.72-37.72c4.54-4.54,4.54-11.94,0-16.47l-2.6-2.6-45.96,45.96v-26.6c0-4.25-3.44-7.69-7.66-7.66h-7.66s0,41.97,0,41.97c0,4.93,1.94,9.6,5.43,13.09s8.18,5.4,13.09,5.43h41.97s-.05-.05-.05-.05Z"/>
    </g>
  </g>
</svg>