<?xml version="1.0" encoding="UTF-8"?>
<svg id="Layer_2" data-name="Layer 2" xmlns="http://www.w3.org/2000/svg" viewBox="0 0 213.1 211.64">
  <defs>
    <style>
      .cls-1 {
        fill: #e7e9e4;
      }

      .cls-2 {
        fill: #422be2;
      }

      .cls-3 {
        fill: #101021;
        stroke: #e7e9e4;
        stroke-miterlimit: 10;
        stroke-width: 1.5px;
      }
    </style>
  </defs>
  <g id="Layer_1-2" data-name="Layer 1">
    <g>
      <path class="cls-3" d="M212.3,97.73c-.77-25.29-2.49-52.3-20.69-71.65C172.45,5.58,139.88,1.18,113.06.79c-26.05-.38-58.62,1.72-80.84,16.48C6.36,34.51,1.57,67.84.8,96.77c-.07,2.68-.07,15.43,0,18.11.77,28.93,5.56,62.26,31.42,79.5,22.22,14.75,54.79,16.86,80.84,16.48,26.82-.38,59.39-4.79,78.54-25.29,18.2-19.35,19.92-46.36,20.69-71.65.07-2.37.07-13.82,0-16.19Z"/>
      <g>
        <path class="cls-1" d="M132.57,116.29v19.51c0,6.51-4.98,11.8-11.15,11.8h-47.28c-6.17,0-11.15-5.29-11.15-11.8v-19.51h69.61-.03Z"/>
        <path class="cls-1" d="M132.57,105.05v4.13H62.96v-4.13c0-6.51,4.98-11.8,11.15-11.8h47.28c6.17,0,11.15,5.29,11.15,11.8h.03Z"/>
        <path class="cls-2" d="M149.7,90.74l-7.92,29.72c-.5,1.85-1.38,3.44-2.47,4.79v-20.17c0-10.46-8.02-18.94-17.91-18.94h-41.74l3.57-13.18c1.72-6.51,7.92-10.08,13.59-8.58l45.43,12.18c5.61,1.5,9.21,7.73,7.45,14.25v-.06Z"/>
      </g>
    </g>
  </g>
</svg>