<?xml version="1.0" encoding="UTF-8"?>
<svg id="Layer_2" data-name="Layer 2" xmlns="http://www.w3.org/2000/svg" viewBox="0 0 104.86 110.52">
  <defs>
    <style>
      .cls-1 {
        fill: #e7e9e4;
      }

      .cls-2 {
        fill: #422be2;
      }
    </style>
  </defs>
  <g id="Layer_1-2" data-name="Layer 1">
    <g>
      <polygon class="cls-2" points="43.33 0 26.99 9.37 53.74 6.38 43.33 0"/>
      <path class="cls-2" d="M83.25,19.62s1.59.16,2.34.26c1,.2,3.11.43,3.01.4-.32-1.22-.79-2.36-1.36-3.4-.6-1.09-1.31-2.07-2.12-2.93-2.39-2.33-5.5-3.69-8.77-3.75-1.3-.4-57.4,6.07-57.4,6.07-3.91.39-7.24,2.7-9.26,6.15,2.75-1.17,6.33-2.94,14.28-2.94h56.6c.86,0,1.77.06,2.68.14Z"/>
      <path class="cls-1" d="M85.11,53.4h19.54v-.78c0-13.74-11.14-24.88-24.88-24.88H24.88C11.14,27.74,0,38.88,0,52.62v33.03c0,13.74,11.14,24.88,24.88,24.88h54.89c13.74,0,24.88-11.14,24.88-24.88v-.35h-19.54c-8.81,0-15.95-7.14-15.95-15.95h0c0-8.81,7.14-15.95,15.95-15.95Z"/>
      <path class="cls-2" d="M86.01,62.23h18.84v14.05h-18.84c-3.88,0-7.03-3.15-7.03-7.03h0c0-3.88,3.15-7.03,7.03-7.03Z"/>
    </g>
  </g>
</svg>