<?xml version="1.0" encoding="UTF-8"?>
<svg id="Layer_2" data-name="Layer 2" xmlns="http://www.w3.org/2000/svg" viewBox="0 0 209.45 209.45">
  <defs>
    <style>
      .cls-1 {
        fill: none;
        stroke: #e7e9e4;
        stroke-miterlimit: 10;
        stroke-width: 7.13px;
      }

      .cls-2 {
        fill: #e7e9e4;
      }
    </style>
  </defs>
  <g id="Layer_1-2" data-name="Layer 1">
    <g>
      <path class="cls-1" d="M30.5,35.99C-7.46,76.99-5,140.99,35.99,178.95c40.99,37.96,105,35.5,142.96-5.49,37.96-40.99,35.5-105-5.49-142.96C132.47-7.46,68.46-5,30.5,35.99Z"/>
      <path class="cls-2" d="M147.4,112.68l-2.97-2.97c-4.33-4.33-11.4-4.33-15.73,0l-16.34,16.34v-53.03s0-.38,0-.38c0-6.4-5.23-11.63-11.63-11.63h-3.67s0,64.99,0,64.99l-18.84-18.84c-3.01-3.01-7.86-2.97-10.83,0l-5.42,5.42,29.67,29.67c3.48,3.48,8.15,5.42,13.04,5.42,4.9,0,9.61-1.98,13.04-5.42l29.67-29.67v.09Z"/>
    </g>
  </g>
</svg>