<?xml version="1.0" encoding="UTF-8"?>
<svg id="Layer_2" data-name="Layer 2" xmlns="http://www.w3.org/2000/svg" viewBox="0 0 93.32 93.23">
  <defs>
    <style>
      .cls-1 {
        fill: #422be2;
      }

      .cls-1, .cls-2 {
        fill-rule: evenodd;
      }

      .cls-2 {
        fill: #e7e9e4;
      }
    </style>
  </defs>
  <g id="Layer_1-2" data-name="Layer 1">
    <g>
      <path class="cls-1" d="M90.54,32.52H2.82c2.94-4.41,7.97-7.31,13.65-7.31h60.47c5.68,0,10.7,2.9,13.65,7.31h-.04Z"/>
      <path class="cls-1" d="M93.27,16.38v7.76c-4.29-4-10.05-6.5-16.38-6.5H16.42c-6.33,0-12.09,2.45-16.38,6.5v-7.76C.04,7.35,7.4,0,16.42,0h60.47c9.03,0,16.38,7.31,16.38,16.38Z"/>
      <path class="cls-2" d="M93.27,41.59v1.27h-12.58c-6.54,0-12.95,2.25-18.1,6.33l-5.68,4.58c-6.01,4.78-14.46,4.78-20.47,0l-5.68-4.58c-5.15-4.13-11.52-6.33-18.1-6.33H.08v-1.27c0-3.35,1.02-6.5,2.74-9.07,2.94-4.41,7.97-7.31,13.65-7.31h60.47c5.68,0,10.7,2.9,13.65,7.31,1.72,2.61,2.74,5.72,2.74,9.07h-.04Z"/>
      <path class="cls-2" d="M.04,76.85v-26.47h12.58c4.82,0,9.56,1.63,13.36,4.7l5.68,4.58c8.78,6.99,21.16,6.99,29.95,0l5.68-4.58c3.8-3.02,8.5-4.7,13.36-4.7h12.58v26.47c0,9.03-7.35,16.38-16.38,16.38H16.38c-9.03,0-16.38-7.31-16.38-16.38h.04Z"/>
    </g>
  </g>
</svg>