<?xml version="1.0" encoding="UTF-8"?>
<svg id="Layer_2" data-name="Layer 2" xmlns="http://www.w3.org/2000/svg" viewBox="0 0 213.1 211.64">
  <defs>
    <style>
      .cls-1, .cls-2 {
        fill: #101021;
      }

      .cls-3 {
        fill: #e7e9e4;
      }

      .cls-4 {
        fill: none;
      }

      .cls-5 {
        fill: #422be2;
      }

      .cls-2 {
        stroke: #e7e9e4;
        stroke-miterlimit: 10;
        stroke-width: 1.5px;
      }
    </style>
  </defs>
  <g id="Layer_1-2" data-name="Layer 1">
    <g>
      <path class="cls-2" d="M212.3,97.73c-.77-25.29-2.49-52.3-20.69-71.65C172.45,5.58,139.88,1.18,113.06.79c-26.05-.38-58.62,1.72-80.84,16.48C6.36,34.51,1.57,67.84.8,96.77c-.07,2.68-.07,15.43,0,18.11.77,28.93,5.56,62.26,31.42,79.5,22.22,14.75,54.79,16.86,80.84,16.48,26.82-.38,59.39-4.79,78.54-25.29,18.2-19.35,19.92-46.36,20.69-71.65.07-2.37.07-13.82,0-16.19Z"/>
      <g>
        <path class="cls-4" d="M68.57,97.16c-7.33,2.73-11.43,5.97-11.43,8.66s4.11,5.93,11.43,8.66c-.63-2.79-1-5.68-1-8.66s.37-5.87,1-8.66Z"/>
        <path class="cls-4" d="M144.53,114.48c7.33-2.73,11.43-5.97,11.43-8.66s-4.11-5.93-11.43-8.66c.63,2.79,1,5.68,1,8.66s-.37,5.87-1,8.66Z"/>
        <path class="cls-3" d="M96.04,68.32c-10.27,2.87-18.84,9.81-23.81,19.01,4.69-1.27,9.84-2.26,15.24-2.94,2.02-6.8,4.97-12.38,8.56-16.07Z"/>
        <path class="cls-3" d="M95.08,128.02c2.95,8.28,7.34,13.26,11.47,13.26s8.52-4.98,11.47-13.26c-3.78.28-7.63.42-11.47.42s-7.69-.14-11.47-.42Z"/>
        <path class="cls-5" d="M125.63,84.38c5.4.68,10.56,1.67,15.24,2.94-4.97-9.2-13.54-16.14-23.81-19.01,3.59,3.69,6.54,9.27,8.56,16.07Z"/>
        <path class="cls-5" d="M87.48,127.26c-5.4-.68-10.56-1.67-15.24-2.94,4.97,9.2,13.54,16.14,23.81,19.01-3.59-3.69-6.54-9.27-8.56-16.07Z"/>
        <path class="cls-3" d="M117.06,143.33c10.27-2.87,18.84-9.81,23.81-19.01-4.69,1.27-9.84,2.26-15.24,2.94-2.02,6.8-4.97,12.37-8.56,16.07Z"/>
        <path class="cls-3" d="M118.03,83.63c-2.95-8.28-7.34-13.26-11.47-13.26s-8.52,4.98-11.47,13.26c3.78-.28,7.63-.42,11.47-.42s7.69.14,11.47.42Z"/>
        <path class="cls-1" d="M106.55,91.47c4.89,0,9.45.24,13.73.64-.58-3.11-1.35-5.95-2.25-8.48-3.78-.28-7.63-.42-11.47-.42s-7.69.14-11.47.42c-.9,2.53-1.67,5.37-2.25,8.48,4.28-.4,8.84-.64,13.73-.64Z"/>
        <path class="cls-1" d="M106.55,120.18c-4.89,0-9.45-.24-13.73-.64.58,3.11,1.35,5.95,2.25,8.48,3.78.28,7.63.42,11.47.42s7.69-.14,11.47-.42c.9-2.53,1.67-5.37,2.25-8.48-4.28.4-8.84.64-13.73.64Z"/>
        <path class="cls-1" d="M85.53,118.66c-6.76-1.03-12.46-2.5-16.96-4.18.79,3.47,2.02,6.78,3.67,9.84,4.69,1.27,9.84,2.26,15.24,2.94-.8-2.69-1.47-5.56-1.95-8.6Z"/>
        <path class="cls-1" d="M127.58,92.98c6.76,1.03,12.46,2.5,16.96,4.18-.79-3.47-2.02-6.78-3.67-9.84-4.69-1.27-9.84-2.26-15.24-2.94.8,2.69,1.47,5.56,1.95,8.6Z"/>
        <path class="cls-1" d="M85.53,92.98c.48-3.04,1.15-5.91,1.95-8.6-5.4.68-10.56,1.67-15.24,2.94-1.65,3.05-2.88,6.36-3.67,9.84,4.5-1.67,10.2-3.15,16.96-4.18Z"/>
        <path class="cls-1" d="M127.58,118.66c-.48,3.04-1.15,5.91-1.95,8.6,5.4-.68,10.56-1.67,15.24-2.94,1.65-3.05,2.88-6.36,3.67-9.84-4.5,1.67-10.2,3.15-16.96,4.18Z"/>
        <path class="cls-1" d="M125.63,127.26c-2.49.32-5.03.57-7.6.75-2.95,8.28-7.34,13.26-11.47,13.26s-8.52-4.98-11.47-13.26c-2.57-.19-5.11-.44-7.6-.75,2.02,6.8,4.97,12.37,8.56,16.07,3.35.94,6.86,1.47,10.51,1.47s7.16-.54,10.51-1.47c3.59-3.69,6.54-9.27,8.56-16.07Z"/>
        <path class="cls-1" d="M87.48,84.38c2.49-.32,5.03-.57,7.6-.76,2.95-8.28,7.34-13.26,11.47-13.26s8.52,4.98,11.47,13.26c2.57.19,5.11.44,7.6.76-2.02-6.8-4.97-12.38-8.56-16.07-3.35-.94-6.86-1.47-10.51-1.47s-7.16.54-10.51,1.47c-3.59,3.69-6.54,9.27-8.56,16.07Z"/>
        <path class="cls-1" d="M127.58,92.98c-2.31-.35-4.75-.64-7.3-.88.78,4.14,1.23,8.74,1.23,13.71s-.46,9.57-1.23,13.71c2.54-.24,4.99-.52,7.3-.88.64-4.04.99-8.34.99-12.84s-.35-8.8-.99-12.84Z"/>
        <path class="cls-1" d="M91.59,105.82c0-4.97.46-9.57,1.23-13.71-2.54.24-4.99.52-7.3.88-.64,4.04-.99,8.34-.99,12.84s.35,8.8.99,12.84c2.31.35,4.75.64,7.3.88-.78-4.14-1.23-8.74-1.23-13.71Z"/>
        <path class="cls-1" d="M118.03,128.02c2.57-.19,5.11-.44,7.6-.75.8-2.69,1.47-5.56,1.95-8.6-2.31.35-4.75.64-7.3.88-.58,3.11-1.35,5.95-2.25,8.48Z"/>
        <path class="cls-1" d="M127.58,92.98c-.48-3.04-1.15-5.91-1.95-8.6-2.49-.32-5.03-.57-7.6-.76.9,2.53,1.67,5.37,2.25,8.48,2.54.24,4.99.52,7.3.88Z"/>
        <path class="cls-1" d="M95.08,83.63c-2.57.19-5.11.44-7.6.76-.8,2.69-1.47,5.56-1.95,8.6,2.31-.35,4.75-.64,7.3-.88.58-3.11,1.35-5.95,2.25-8.48Z"/>
        <path class="cls-1" d="M85.53,118.66c.48,3.04,1.15,5.91,1.95,8.6,2.49.32,5.03.57,7.6.75-.9-2.53-1.67-5.37-2.25-8.48-2.54-.24-4.99-.52-7.3-.88Z"/>
        <path class="cls-3" d="M85.53,92.99s0,0,0,0c-6.76,1.03-12.46,2.5-16.96,4.18-.63,2.79-1,5.68-1,8.66s.37,5.87,1,8.66c4.5,1.67,10.2,3.15,16.96,4.18-.64-4.04-.99-8.34-.99-12.84,0-3.91.27-7.66.76-11.23l7.07.24.45-2.72-7.3.88h0Z"/>
        <g>
          <path class="cls-3" d="M144.53,97.16c-4.5-1.67-10.2-3.15-16.96-4.18.64,4.04.99,8.34.99,12.84,0,3.97-.28,7.79-.79,11.41l-7.04-.43-.45,2.72,7.3-.88c6.76-1.03,12.46-2.5,16.96-4.18.63-2.79,1-5.68,1-8.66s-.37-5.87-1-8.66Z"/>
          <path class="cls-3" d="M120.28,92.11c-4.28-.4-8.84-.64-13.73-.64s-9.45.24-13.73.64c-.78,4.14-1.23,8.74-1.23,13.71s.46,9.57,1.23,13.71c4.28.4,8.84.64,13.73.64s9.45-.24,13.73-.64c.78-4.14,1.23-8.74,1.23-13.71s-.46-9.57-1.23-13.71Z"/>
        </g>
      </g>
    </g>
  </g>
</svg>